<svg xmlns="http://www.w3.org/2000/svg" viewBox="0 0 1200 630" role="img" aria-label="HL Privateer social card">
  <defs>
    <linearGradient id="surface" x1="0" y1="0" x2="1" y2="1">
      <stop offset="0%" stop-color="#ffffff"/>
      <stop offset="100%" stop-color="#f2f5f8"/>
    </linearGradient>
  </defs>

  <rect width="1200" height="630" fill="url(#surface)"/>
  <rect x="38" y="38" width="1124" height="554" fill="#ffffff" stroke="#111111" stroke-width="4"/>

  <rect x="74" y="84" width="184" height="184" fill="#ffffff" stroke="#111111" stroke-width="6"/>
  <rect x="102" y="116" width="22" height="120" fill="#111111"/>
  <rect x="154" y="116" width="22" height="120" fill="#111111"/>
  <rect x="102" y="162" width="74" height="22" fill="#0072B5"/>
  <rect x="198" y="116" width="22" height="120" fill="#111111"/>
  <rect x="198" y="214" width="42" height="22" fill="#0072B5"/>
  <circle cx="234" cy="128" r="11" fill="#0072B5"/>

  <rect x="294" y="98" width="840" height="56" fill="#111111"/>
  <text x="320" y="135" fill="#ffffff" font-family="IBM Plex Mono, Menlo, Consolas, monospace" font-size="34" letter-spacing="2">[HL] PRIVATEER</text>

  <text x="294" y="220" fill="#111111" font-family="IBM Plex Mono, Menlo, Consolas, monospace" font-size="42" letter-spacing="1">OPEN HYPERLIQUID DISCRETIONARY DESK</text>
  <text x="294" y="286" fill="#1e1e1e" font-family="IBM Plex Mono, Menlo, Consolas, monospace" font-size="26">Autonomous agents, live floor telemetry, x402 pay-per-call access.</text>

  <rect x="294" y="336" width="790" height="2" fill="#c8d4df"/>

  <text x="294" y="388" fill="#111111" font-family="IBM Plex Mono, Menlo, Consolas, monospace" font-size="24">Live floor: /floor</text>
  <text x="294" y="428" fill="#111111" font-family="IBM Plex Mono, Menlo, Consolas, monospace" font-size="24">Agent docs: /llms.txt / AGENT.md / skills.md</text>
  <text x="294" y="468" fill="#111111" font-family="IBM Plex Mono, Menlo, Consolas, monospace" font-size="24">API base: api.hlprivateer.xyz</text>

  <rect x="74" y="514" width="1040" height="46" fill="#111111"/>
  <text x="96" y="544" fill="#ffffff" font-family="IBM Plex Mono, Menlo, Consolas, monospace" font-size="21">hlprivateer.xyz</text>
</svg>
